<?xml version="1.0" encoding="iso-8859-1"?>
<!-- Generator: Adobe Illustrator 19.0.0, SVG Export Plug-In . SVG Version: 6.00 Build 0)  -->
<svg version="1.1" id="Capa_1" xmlns="http://www.w3.org/2000/svg" xmlns:xlink="http://www.w3.org/1999/xlink" x="0px" y="0px"
	 viewBox="0 0 512 512" style="enable-background:new 0 0 512 512;" xml:space="preserve">
<g>
	<circle style="fill:#2196F3;" cx="64" cy="64" r="64"/>
	<path style="fill:#2196F3;" d="M10.667,170.667h106.667c5.891,0,10.667,4.776,10.667,10.667v320
		c0,5.891-4.776,10.667-10.667,10.667H10.667C4.776,512,0,507.224,0,501.333v-320C0,175.442,4.776,170.667,10.667,170.667z"/>
	<path style="fill:#2196F3;" d="M435.2,155.989c-46.708-13.31-96.923-4.98-136.832,22.699c-1.211-4.732-5.483-8.037-10.368-8.021
		H181.333c-5.891,0-10.667,4.776-10.667,10.667v320c0,5.891,4.776,10.667,10.667,10.667H288c5.891,0,10.667-4.776,10.667-10.667
		V271.36c15.414-14.524,37.701-19.113,57.6-11.861c18.7,9.237,29.74,29.075,27.733,49.835v192c0,5.891,4.776,10.667,10.667,10.667
		h106.667c5.891,0,10.667-4.776,10.667-10.667V287.851C510.784,200.192,469.547,167.744,435.2,155.989z"/>
</g>
<path d="M64,128C28.654,128,0,99.346,0,64S28.654,0,64,0s64,28.654,64,64S99.346,128,64,128z M64,21.333
	c-23.564,0-42.667,19.103-42.667,42.667S40.436,106.667,64,106.667S106.667,87.564,106.667,64S87.564,21.333,64,21.333z"/>
<path d="M117.333,512H10.667C4.776,512,0,507.224,0,501.333v-320c0-5.891,4.776-10.667,10.667-10.667h106.667
	c5.891,0,10.667,4.776,10.667,10.667v320C128,507.224,123.224,512,117.333,512z M21.333,490.667h85.333V192H21.333V490.667z"/>
<path d="M501.333,512H394.667c-5.891,0-10.667-4.776-10.667-10.667v-192c2.013-20.761-9.029-40.602-27.733-49.835
	c-19.895-7.298-42.207-2.704-57.6,11.861v229.973c0,5.891-4.776,10.667-10.667,10.667H181.333c-5.891,0-10.667-4.776-10.667-10.667
	v-320c0-5.891,4.776-10.667,10.667-10.667H288c4.863,0.001,9.11,3.291,10.325,8c39.91-27.715,90.155-36.047,136.875-22.699
	c34.389,11.776,75.648,44.224,76.8,131.883v213.483C512,507.224,507.224,512,501.333,512z M405.333,490.667h85.333V288
	c-0.811-59.413-22.421-98.133-62.443-111.851c-46.74-13.08-96.912-0.462-131.904,33.173c-3.686,4.595-10.4,5.332-14.995,1.645
	c-2.518-2.02-3.986-5.073-3.992-8.301V192H192v298.667h85.333v-224c0-2.876,1.162-5.63,3.221-7.637
	c21.641-22.646,54.704-30.201,84.032-19.2c26.807,12.338,43.074,40.086,40.747,69.504V490.667z"/>
<g>
</g>
<g>
</g>
<g>
</g>
<g>
</g>
<g>
</g>
<g>
</g>
<g>
</g>
<g>
</g>
<g>
</g>
<g>
</g>
<g>
</g>
<g>
</g>
<g>
</g>
<g>
</g>
<g>
</g>
</svg>
